<svg xmlns="http://www.w3.org/2000/svg" width="460" height="140" viewBox="0 0 460 140">
  <defs>
    <linearGradient id="glow" x1="0%" y1="0%" x2="100%" y2="100%">
      <stop offset="0%" stop-color="#018574" stop-opacity="0.08"/>
      <stop offset="100%" stop-color="#018574" stop-opacity="0"/>
    </linearGradient>
  </defs>
  <rect width="460" height="140" rx="4" fill="#0e1012"/>
  <rect x="0.5" y="0.5" width="459" height="139" rx="4" fill="none" stroke="#1a1e21"/>
  <rect width="460" height="140" fill="url(#glow)"/>
  <!-- Corner marks -->
  <line x1="10" y1="8" x2="18" y2="8" stroke="#018574" stroke-opacity="0.4" stroke-width="1"/>
  <line x1="10" y1="8" x2="10" y2="16" stroke="#018574" stroke-opacity="0.4" stroke-width="1"/>
  <line x1="450" y1="8" x2="442" y2="8" stroke="#018574" stroke-opacity="0.4" stroke-width="1"/>
  <line x1="450" y1="8" x2="450" y2="16" stroke="#018574" stroke-opacity="0.4" stroke-width="1"/>
  <line x1="10" y1="132" x2="18" y2="132" stroke="#018574" stroke-opacity="0.4" stroke-width="1"/>
  <line x1="10" y1="132" x2="10" y2="124" stroke="#018574" stroke-opacity="0.4" stroke-width="1"/>
  <line x1="450" y1="132" x2="442" y2="132" stroke="#018574" stroke-opacity="0.4" stroke-width="1"/>
  <line x1="450" y1="132" x2="450" y2="124" stroke="#018574" stroke-opacity="0.4" stroke-width="1"/>
  <!-- Icon: Math/Plus -->
  <rect x="24" y="36" width="32" height="32" rx="16" fill="none" stroke="#1a1e21"/>
  <line x1="40" y1="46" x2="40" y2="62" stroke="#7a8088" stroke-width="1.5" stroke-linecap="round"/>
  <line x1="32" y1="54" x2="48" y2="54" stroke="#7a8088" stroke-width="1.5" stroke-linecap="round"/>
  <path d="M34 58 C36 55 38 53 40 53 C42 53 44 55 46 58" fill="none" stroke="#4a5058" stroke-width="1" stroke-linecap="round"/>
  <path d="M34 48 C36 51 38 53 40 53 C42 53 44 51 46 48" fill="none" stroke="#4a5058" stroke-width="1" stroke-linecap="round"/>
  <!-- Text -->
  <text x="72" y="48" font-family="'IBM Plex Mono', monospace" font-size="15" font-weight="600" fill="#e8eaec">RIES</text>
  <text x="72" y="64" font-family="'IBM Plex Mono', monospace" font-size="11" fill="#4a5058">ries.yuer6327.top</text>
  <!-- Description -->
  <text x="24" y="100" font-family="'IBM Plex Mono', monospace" font-size="11" fill="#7a8088">拉马努金方程模拟器</text>
  <text x="24" y="116" font-family="'IBM Plex Mono', monospace" font-size="10" fill="#4a5058">数学 · 算法 · 前端</text>
  <!-- Arrow -->
  <path d="M430 16 L440 16 L440 26" fill="none" stroke="#4a5058" stroke-width="1.5" stroke-linecap="round" stroke-linejoin="round"/>
  <path d="M430 26 L440 16" fill="none" stroke="#4a5058" stroke-width="1.5" stroke-linecap="round"/>
</svg>
